<svg width="24" height="17" viewBox="0 0 24 17" fill="none" xmlns="http://www.w3.org/2000/svg">
<path d="M18.428 16.4759H10.6642C10.0969 16.4798 9.54362 16.2977 9.08724 15.9568C8.63086 15.616 8.29596 15.1348 8.1327 14.5853L4.40831 2.38327C4.34565 2.17732 4.21905 1.99725 4.04728 1.86975C3.8755 1.74225 3.66768 1.6741 3.45461 1.67539H0.82975C0.720977 1.67559 0.613232 1.65411 0.512666 1.61219C0.4121 1.57028 0.320682 1.50874 0.243633 1.43109C0.088025 1.27428 0.000388039 1.06137 1.28551e-06 0.839212C-0.000385468 0.617052 0.0865097 0.403836 0.241571 0.246468C0.396632 0.0891008 0.607157 0.000472949 0.826833 8.1822e-05H3.4517C4.01952 -0.00442559 4.57347 0.177405 5.03044 0.518291C5.48741 0.859177 5.82275 1.34073 5.98615 1.89071L6.74736 4.38597H21.3299C21.7704 4.38648 22.2037 4.49782 22.591 4.70996C22.9783 4.9221 23.3072 5.22838 23.5483 5.60117C23.7893 5.97397 23.9348 6.40156 23.9717 6.84541C24.0085 7.28925 23.9356 7.7354 23.7594 8.14362L20.8429 14.8714C20.6369 15.3464 20.2992 15.7508 19.8706 16.0356C19.442 16.3204 18.9408 16.4734 18.428 16.4759ZM7.26358 6.06128L9.71345 14.0927C9.77546 14.2988 9.90139 14.4791 10.0726 14.6071C10.2439 14.7352 10.4513 14.804 10.6642 14.8036H18.428C18.6202 14.8046 18.8086 14.7495 18.9705 14.6449C19.1325 14.5402 19.2611 14.3905 19.3409 14.2137L22.2574 7.48589C22.3239 7.33264 22.3515 7.16504 22.3377 6.99827C22.324 6.8315 22.2693 6.67083 22.1787 6.53083C22.088 6.39082 21.9643 6.27591 21.8186 6.19649C21.6729 6.11708 21.51 6.07567 21.3445 6.07603L7.26358 6.06128Z" fill="#1D1818"/>
</svg>
