<svg width="181" height="30" viewBox="0 0 181 30" fill="none" xmlns="http://www.w3.org/2000/svg">
<path d="M4.10776 23.6361H1.05466C0.703908 23.6361 0.559664 23.4539 0.681092 23.1063L7.14384 4.63454H3.04546C2.73492 4.63454 2.57792 4.48875 2.57792 4.19795V1.83088C2.57792 1.51957 2.73415 1.36373 3.04546 1.36373C8.68218 1.36373 14.3185 1.36373 19.9553 1.36373C20.2673 1.36373 20.4224 1.52035 20.4224 1.83088V4.19795C20.4224 4.48798 20.2666 4.63454 19.9553 4.63454H15.8634L22.3262 23.1063C22.4298 23.4597 22.3053 23.6361 21.9522 23.6361H18.8991C18.6087 23.6361 18.432 23.5119 18.3693 23.2625L16.8434 18.5589H6.16391L4.63755 23.2625C4.5575 23.5112 4.37652 23.6361 4.10776 23.6361ZM24.8178 8.25263C26.7278 7.50512 28.8245 7.13155 31.1084 7.13155C33.2671 7.13155 35.0007 7.70234 36.3082 8.8443C37.6164 9.98627 38.2704 11.6882 38.2704 13.9512V17.3767C38.2704 19.3907 37.6265 20.9995 36.3395 22.2037C35.0525 23.4075 33.4024 24.0096 31.3884 24.0096C30.2468 24.0096 29.1463 23.7815 28.0874 23.3248V29.0856C28.0874 29.3969 27.9316 29.5528 27.6203 29.5528H24.9423C24.631 29.5528 24.4755 29.3969 24.4755 29.0856V8.7511C24.4755 8.50167 24.5896 8.33577 24.8178 8.25263ZM31.0771 20.8336C33.4229 20.8336 34.5958 19.6912 34.5958 17.4081V13.9207C34.5958 12.6329 34.295 11.7095 33.6932 11.1487C33.0911 10.5884 32.1982 10.3076 31.0149 10.3076C29.7689 10.3076 28.7932 10.453 28.0874 10.7438V19.9615C28.9386 20.5428 29.9348 20.8336 31.0771 20.8336ZM54.9926 23.6361H51.8475C51.5775 23.6361 51.3908 23.5425 51.2867 23.3561L46.4292 16.9718L45.1523 18.342V23.1689C45.1523 23.4802 44.9961 23.6361 44.6848 23.6361H42.1004C41.7891 23.6361 41.6336 23.4802 41.6336 23.1689V7.97265C41.6336 7.66135 41.7891 7.50512 42.1004 7.50512H44.6848C44.9961 7.50512 45.1523 7.66135 45.1523 7.97265V13.9822L50.7264 7.75416C50.8505 7.58826 51.0377 7.50512 51.2867 7.50512H54.4323C54.6391 7.50512 54.7695 7.55693 54.8213 7.66135C54.8731 7.76499 54.8371 7.89956 54.7122 8.06546L48.8269 14.4497L55.3039 23.0757C55.5321 23.4493 55.4284 23.6361 54.9926 23.6361ZM70.3443 17.7194C70.3443 19.6502 69.7012 21.1812 68.4142 22.3124C67.1265 23.4443 65.4033 24.0096 63.2451 24.0096C61.0857 24.0096 59.3625 23.4443 58.0755 22.3124C56.7885 21.1812 56.1446 19.6502 56.1446 17.7194V13.5467C56.1446 11.5954 56.7885 10.0381 58.0755 8.87524C59.3625 7.71317 61.0857 7.13155 63.2451 7.13155C65.4033 7.13155 67.1265 7.71317 68.4142 8.87524C69.7012 10.0381 70.3443 11.5954 70.3443 13.5467V17.7194ZM59.7882 17.7194C59.7882 19.7539 60.9402 20.7713 63.2451 20.7713C64.3661 20.7713 65.2223 20.5118 65.8136 19.9925C66.4057 19.4735 66.7011 18.7155 66.7011 17.7194V13.5467C66.7011 12.5293 66.4002 11.7454 65.7985 11.1951C65.1964 10.6456 64.3449 10.3703 63.2451 10.3703C62.124 10.3703 61.2674 10.6402 60.6754 11.18C60.0841 11.7195 59.7882 12.5088 59.7882 13.5467V17.7194ZM77.5995 23.6361H74.766C74.4752 23.6361 74.3298 23.4802 74.3298 23.1689V1.83745C74.3298 1.52615 74.4752 1.37069 74.766 1.37069H78.1602C78.4092 1.37069 78.5751 1.48515 78.6583 1.71332L82.4573 8.78243C83.2462 10.2558 84.1287 12.0834 85.1044 14.2629H85.2285C86.2046 12.0834 87.0871 10.2558 87.8756 8.78243L91.6437 1.71332C91.7682 1.48515 91.9446 1.37069 92.1731 1.37069H95.5364C95.8477 1.37069 96.0035 1.52615 96.0035 1.83745V23.1689C96.0035 23.4802 95.8477 23.6361 95.5364 23.6361H92.7025C92.4117 23.6361 92.2663 23.4802 92.2663 23.1689V16.9096C92.2663 14.4601 92.3495 11.2005 92.5154 7.13155L92.4225 7.10023C91.7992 8.44985 90.8652 10.3703 89.6193 12.8611L86.8794 18.1865C86.7754 18.4151 86.5994 18.5291 86.3496 18.5291H83.9833C83.7339 18.5291 83.5579 18.4151 83.4539 18.1865L80.7137 12.8611C79.468 10.3703 78.5341 8.44985 77.9108 7.10023L77.8179 7.13155C77.9838 11.2005 78.0666 14.4601 78.0666 16.9096V23.1689C78.0666 23.4802 77.9108 23.6361 77.5995 23.6361ZM113.598 13.5158V16.6605C113.598 16.9514 113.442 17.0968 113.13 17.0968H103.664V17.968C103.664 18.9027 103.96 19.6135 104.551 20.1015C105.143 20.5895 105.947 20.8336 106.965 20.8336C108.48 20.8336 109.944 20.3556 111.356 19.4012C111.604 19.2345 111.812 19.2658 111.978 19.494L113.255 21.2071C113.463 21.4357 113.432 21.6534 113.162 21.8611C111.356 23.2934 109.248 24.0096 106.84 24.0096C104.93 24.0096 103.316 23.4853 101.998 22.4373C100.68 21.3885 100.021 19.8892 100.021 17.9375V13.5158C100.021 11.3769 100.685 9.7786 102.014 8.71978C103.342 7.66135 104.961 7.13155 106.871 7.13155C108.76 7.13155 110.354 7.66135 111.651 8.71978C112.949 9.7786 113.598 11.3769 113.598 13.5158ZM110.079 13.4845C110.079 12.4044 109.778 11.6054 109.176 11.0865C108.574 10.5671 107.806 10.3076 106.871 10.3076C104.733 10.3076 103.664 11.3664 103.664 13.4845V14.2935H110.079V13.4845ZM120.323 9.06241C121.404 8.54344 122.607 8.28395 123.936 8.28395C125.908 8.28395 127.507 8.83927 128.731 9.94991C129.956 11.0606 130.569 12.6329 130.569 14.6674V17.439C130.569 19.6189 129.899 21.2589 128.56 22.3591C127.221 23.4593 125.555 24.0096 123.562 24.0096C121.632 24.0096 120.007 23.4543 118.689 22.3437C117.371 21.233 116.711 19.5876 116.711 17.4081V8.00359C116.711 6.09361 117.339 4.58853 118.595 3.48833C119.852 2.38774 121.341 1.67155 123.064 1.33975C125.535 0.903539 127.102 0.519146 127.766 0.187346C128.057 0.0624379 128.264 0.115031 128.389 0.343191L129.541 2.3046C129.666 2.59541 129.613 2.80307 129.385 2.92798C128.659 3.34292 126.977 3.85145 124.341 4.45318C123.759 4.59858 123.271 4.74398 122.877 4.88939C122.483 5.03479 122.067 5.24246 121.632 5.512C121.196 5.78231 120.868 6.13538 120.651 6.5712C120.433 7.00703 120.323 7.526 120.323 8.12811V9.06241ZM123.531 20.7713C124.507 20.7713 125.311 20.501 125.944 19.9615C126.577 19.4217 126.894 18.5914 126.894 17.4703V14.7297C126.894 12.4875 125.794 11.3664 123.593 11.3664C122.368 11.3664 121.279 11.6159 120.323 12.114V17.439C120.323 18.581 120.625 19.4217 121.227 19.9615C121.829 20.501 122.597 20.7713 123.531 20.7713ZM147.011 13.5158V16.6605C147.011 16.9514 146.855 17.0968 146.543 17.0968H137.077V17.968C137.077 18.9027 137.373 19.6135 137.964 20.1015C138.556 20.5895 139.36 20.8336 140.378 20.8336C141.893 20.8336 143.357 20.3556 144.768 19.4012C145.017 19.2345 145.225 19.2658 145.391 19.494L146.668 21.2071C146.876 21.4357 146.845 21.6534 146.575 21.8611C144.768 23.2934 142.661 24.0096 140.253 24.0096C138.343 24.0096 136.729 23.4853 135.411 22.4373C134.092 21.3885 133.433 19.8892 133.433 17.9375V13.5158C133.433 11.3769 134.098 9.7786 135.427 8.71978C136.755 7.66135 138.374 7.13155 140.284 7.13155C142.173 7.13155 143.767 7.66135 145.065 8.71978C146.362 9.7786 147.011 11.3769 147.011 13.5158ZM143.492 13.4845C143.492 12.4044 143.191 11.6054 142.588 11.0865C141.987 10.5671 141.219 10.3076 140.284 10.3076C138.146 10.3076 137.077 11.3664 137.077 13.4845V14.2935H143.492V13.4845ZM154.826 18.342C154.432 20.3146 153.83 21.6998 153.02 22.4995C152.211 23.2989 150.924 23.7297 149.159 23.7919C148.868 23.7919 148.723 23.6361 148.723 23.3248V21.0513C148.723 20.7814 148.868 20.6155 149.159 20.5528C149.761 20.5118 150.233 20.2628 150.576 19.8057C150.918 19.349 151.204 18.5291 151.432 17.3454C151.785 15.2904 152.045 12.1557 152.211 7.94133C152.252 7.65052 152.408 7.50512 152.678 7.50512H163.265C163.577 7.50512 163.733 7.65052 163.733 7.94133V23.1689C163.733 23.4802 163.577 23.6361 163.265 23.6361H160.587C160.276 23.6361 160.121 23.4802 160.121 23.1689V10.6816H155.574C155.47 13.6504 155.221 16.2038 154.826 18.342ZM174.569 23.6361H168.123C167.811 23.6361 167.656 23.4802 167.656 23.1689V7.94133C167.656 7.65052 167.811 7.50512 168.123 7.50512H170.801C171.112 7.50512 171.268 7.65052 171.268 7.94133V12.737H174.569C176.479 12.737 178.021 13.225 179.194 14.2007C180.366 15.1763 180.953 16.526 180.953 18.2488C180.953 20.0961 180.387 21.4562 179.255 22.3282C178.124 23.1999 176.562 23.6361 174.569 23.6361ZM171.268 15.6953V20.6464H173.946C176.188 20.6464 177.309 19.8266 177.309 18.1865C177.33 17.3357 177.06 16.7069 176.5 16.3028C175.939 15.8979 175.088 15.6953 173.946 15.6953H171.268ZM10.6436 4.63454L7.22273 15.1628H15.7842L12.3641 4.63454H10.6436Z" fill="white"/>
</svg>
