<svg width="32" height="32" viewBox="0 0 32 32" fill="none" xmlns="http://www.w3.org/2000/svg">
<path d="M16 0.166748C13.9207 0.166748 11.8618 0.576289 9.9408 1.37199C8.01982 2.16769 6.27436 3.33396 4.8041 4.80422C1.83478 7.77355 0.166626 11.8008 0.166626 16.0001C0.166626 20.1993 1.83478 24.2266 4.8041 27.1959C6.27436 28.6662 8.01982 29.8325 9.9408 30.6282C11.8618 31.4239 13.9207 31.8334 16 31.8334C20.1992 31.8334 24.2265 30.1653 27.1958 27.1959C30.1651 24.2266 31.8333 20.1993 31.8333 16.0001C31.8333 13.9208 31.4238 11.8619 30.6281 9.94093C29.8324 8.01994 28.6661 6.27448 27.1958 4.80422C25.7256 3.33396 23.9801 2.16769 22.0591 1.37199C20.1381 0.576289 18.0792 0.166748 16 0.166748ZM6.49996 8.08341H25.5V11.2501H6.49996V8.08341ZM6.49996 14.4167H25.5V17.5834H6.49996V14.4167ZM6.49996 20.7501H25.5V23.9167H6.49996V20.7501Z" fill="black"/>
</svg>
